<svg width="35" height="40" viewBox="0 0 35 40" fill="none" xmlns="http://www.w3.org/2000/svg">
<g clip-path="url(#clip0_1_440)">
<path d="M17.2227 9.86515C19.3747 9.86515 21.2626 9.02479 22.8863 7.34403C24.51 5.66326 25.3219 3.70883 25.3219 1.48073C25.3219 1.23602 25.3026 0.88828 25.2639 0.4375C24.9804 0.476138 24.7678 0.508337 24.626 0.534096C22.6415 0.817443 20.8953 1.78984 19.3876 3.45124C17.8799 5.11269 17.126 6.89005 17.126 8.78332C17.126 9.00223 17.1582 9.3629 17.2227 9.86515ZM24.9353 39.4039C26.4688 39.4039 28.1634 38.3543 30.0191 36.2549C31.8748 34.1556 33.2923 31.6892 34.2717 28.8557C30.6248 26.9753 28.8013 24.2771 28.8013 20.7611C28.8013 17.8246 30.2768 15.3132 33.2279 13.2267C31.1789 10.6637 28.4727 9.38218 25.1093 9.38218C23.6917 9.38218 22.3967 9.59469 21.224 10.0197L20.4894 10.2902L19.5036 10.6766C18.8592 10.9213 18.2729 11.0437 17.7446 11.0437C17.3322 11.0437 16.7909 10.9019 16.1209 10.6186L15.367 10.3095L14.6518 10.0197C13.6079 9.58181 12.4868 9.36286 11.2884 9.36286C8.07958 9.36286 5.50226 10.4447 3.55636 12.6085C1.61046 14.7722 0.637527 17.625 0.637527 21.1668C0.637527 26.1511 2.1968 30.7555 5.31538 34.9799C7.48036 37.9292 9.45846 39.4039 11.2497 39.4039C12.01 39.4039 12.7639 39.2558 13.5113 38.9596L14.4585 38.5732L15.2124 38.3027C16.269 37.9292 17.242 37.7425 18.1311 37.7425C19.0719 37.7425 20.1544 37.9808 21.3786 38.4573L21.9778 38.6891C23.2278 39.1656 24.2137 39.4039 24.9353 39.4039Z" fill="white"/>
</g>
<defs>
<clipPath id="clip0_1_440">
<rect width="33.6358" height="38.9664" fill="white" transform="translate(0.63681 0.4375)"/>
</clipPath>
</defs>
</svg>
