<svg width="37" height="41" viewBox="0 0 37 41" fill="none" xmlns="http://www.w3.org/2000/svg">
<path d="M21.1058 20.515L1.70198 39.5546C0.672602 38.7657 0.0720784 37.5403 0.0795287 36.2435V4.81973C0.0722336 3.52292 0.672602 2.29734 1.70198 1.50854L21.1058 20.515Z" fill="#2196F3"/>
<path d="M36.5053 20.515C36.5055 22.022 35.6963 23.4128 34.3862 24.1574L28.2936 27.5349L21.1081 20.515L28.2934 13.4951L34.386 16.9056C35.688 17.6424 36.4965 19.0192 36.5053 20.515Z" fill="#FFC107"/>
<path d="M28.2912 27.535L6.17214 39.8859C5.55951 40.2089 4.87796 40.3793 4.1854 40.3825C3.46117 40.3964 2.74842 40.2008 2.13238 39.8196C1.98446 39.7387 1.84073 39.6502 1.70197 39.5546L21.1059 20.5151L28.2912 27.535Z" fill="#F44336"/>
<path d="M28.2906 13.4954L21.1053 20.5151L1.70154 1.50863C1.84045 1.41302 1.98403 1.32455 2.13195 1.24368C3.36807 0.49462 4.91168 0.46932 6.17171 1.17741L28.2906 13.4954Z" fill="#4CAF50"/>
</svg>
