<svg width="128" height="33" viewBox="0 0 128 33" fill="none" xmlns="http://www.w3.org/2000/svg">
<path d="M24.5939 31.5114C23.9034 32.7144 22.1578 32.7144 21.4673 31.5114L11.9412 14.9159C11.2569 13.724 12.1233 12.2422 13.5045 12.2422H32.5567C33.9379 12.2422 34.8043 13.724 34.12 14.9159L24.5939 31.5114Z" fill="#228B22"/>
<g filter="url(#filter0_f_1_3221)">
<path d="M24.6497 13.5081H13.1319V15.6537H24.6497V13.5081Z" fill="#0D3D0D"/>
</g>
<path d="M17.4617 3.12879C18.0158 2.17517 19.4012 2.17517 19.9554 3.12878L25.722 13.0523C26.2762 14.0059 25.5835 15.1979 24.4751 15.1979H12.9419C11.8336 15.1979 11.1409 14.0059 11.695 13.0523L17.4617 3.12879Z" fill="#23A323"/>
<path d="M53.3959 26.2004V18.9707C53.3959 18.3302 53.2906 17.8018 53.0801 17.3854C52.8696 16.9691 52.5537 16.6568 52.1326 16.4487C51.7114 16.2245 51.1769 16.1124 50.5291 16.1124C49.8164 16.1124 49.1604 16.2806 48.5612 16.6168C47.9781 16.9371 47.5003 17.3774 47.1277 17.9379C46.7552 18.4823 46.5285 19.0988 46.4475 19.7873L46.4232 18.4183C46.5042 17.7938 46.6742 17.2093 46.9334 16.6649C47.2087 16.1205 47.5489 15.648 47.9538 15.2478C48.3749 14.8475 48.8608 14.5352 49.4115 14.311C49.9622 14.0868 50.5615 13.9747 51.2094 13.9747C51.8896 13.9747 52.5052 14.0708 53.0558 14.263C53.6065 14.4392 54.0762 14.7193 54.465 15.1036C54.8698 15.472 55.1777 15.9283 55.3882 16.4727C55.5987 17.0011 55.704 17.6097 55.704 18.2982V26.2004H53.3959ZM44.2852 26.2004V9.41113H46.5932V26.2004H44.2852ZM63.7798 26.4406C62.7431 26.4406 61.7956 26.1764 60.9373 25.648C60.0788 25.1196 59.3985 24.3909 58.8964 23.4622C58.3943 22.5175 58.1433 21.4366 58.1433 20.2197C58.1433 19.0028 58.3943 17.9298 58.8964 17.0011C59.4147 16.0563 60.1192 15.3198 61.0101 14.7914C61.9009 14.247 62.8971 13.9747 63.9985 13.9747C65.2133 13.9747 66.1526 14.2549 66.8168 14.8154C67.497 15.3759 67.9667 16.1284 68.2259 17.0732C68.5012 18.018 68.6389 19.0668 68.6389 20.2197C68.6389 20.8601 68.5579 21.5407 68.396 22.2613C68.2339 22.9819 67.9748 23.6624 67.6185 24.3029C67.2621 24.9434 66.7682 25.4639 66.1365 25.8641C65.5048 26.2485 64.7192 26.4406 63.7798 26.4406ZM64.4358 24.447C65.2942 24.447 66.015 24.2629 66.5981 23.8946C67.1973 23.5103 67.6428 22.9978 67.9343 22.3574C68.2259 21.7169 68.3717 21.0043 68.3717 20.2197C68.3717 19.371 68.2178 18.6264 67.9101 17.9859C67.6185 17.3454 67.173 16.849 66.5738 16.4967C65.9907 16.1445 65.278 15.9683 64.4358 15.9683C63.1724 15.9683 62.1925 16.3686 61.4961 17.1693C60.8158 17.9699 60.4756 18.9867 60.4756 20.2197C60.4756 21.0523 60.6457 21.789 60.9858 22.4294C61.326 23.0539 61.7876 23.5503 62.3707 23.9186C62.9699 24.2708 63.6583 24.447 64.4358 24.447ZM68.3717 14.2149H70.704V26.2004H68.566C68.566 26.2004 68.5498 26.0563 68.5174 25.7681C68.485 25.4639 68.4526 25.1036 68.4203 24.6872C68.3878 24.2708 68.3717 23.9026 68.3717 23.5823V14.2149ZM73.7461 14.2149H76.0784V26.2004H73.7461V14.2149ZM80.1844 16.2565C79.3422 16.2565 78.6213 16.4487 78.0221 16.833C77.439 17.2173 76.9692 17.6896 76.6129 18.2501C76.2728 18.8106 76.046 19.347 75.9327 19.8594L75.9084 18.4903C75.9245 18.3302 75.9651 18.082 76.0298 17.7457C76.1109 17.3935 76.2485 17.0011 76.4429 16.5688C76.6372 16.1365 76.8963 15.7281 77.2203 15.3438C77.5443 14.9435 77.9492 14.6152 78.4351 14.359C78.921 14.1029 79.5041 13.9747 80.1844 13.9747V16.2565ZM87.1708 24.3269C86.1666 24.3269 85.2434 24.1267 84.4011 23.7265C83.5589 23.3262 82.8867 22.7417 82.3846 21.9731C81.8986 21.2045 81.6557 20.2758 81.6557 19.1869C81.6557 18.1141 81.8986 17.1933 82.3846 16.4247C82.8705 15.6401 83.5264 15.0396 84.3525 14.6233C85.1948 14.1909 86.1342 13.9747 87.1708 13.9747C87.4786 13.9747 87.7701 13.9988 88.0454 14.0468C88.3208 14.0789 88.588 14.1348 88.8471 14.2149H94.1436V16.3766C93.4147 16.3766 92.6778 16.2565 91.9327 16.0164C91.2038 15.7762 90.5641 15.52 90.0133 15.2478L89.9404 15.1277C90.4912 15.4159 90.969 15.7681 91.3739 16.1845C91.7789 16.5848 92.0866 17.0411 92.2971 17.5536C92.5239 18.0499 92.6372 18.6104 92.6372 19.2349C92.6372 20.2917 92.3943 21.2045 91.9084 21.9731C91.4387 22.7417 90.7828 23.3262 89.9404 23.7265C89.1144 24.1267 88.1912 24.3269 87.1708 24.3269ZM90.888 31.0523V30.4998C90.888 29.6832 90.6613 29.0987 90.2077 28.7464C89.7542 28.3942 89.0901 28.218 88.2155 28.218H85.3729C84.7736 28.218 84.2634 28.17 83.8423 28.0739C83.4212 27.9778 83.073 27.8337 82.7976 27.6416C82.5223 27.4654 82.3198 27.2413 82.1902 26.969C82.0607 26.7129 81.9958 26.4246 81.9958 26.1043C81.9958 25.4798 82.1902 25.0075 82.5789 24.6872C82.9676 24.3669 83.4617 24.1668 84.0609 24.0867C84.6603 23.9907 85.2677 23.9826 85.8831 24.0627L87.1708 24.3269C86.2475 24.375 85.543 24.463 85.057 24.5911C84.5711 24.7193 84.3282 24.9914 84.3282 25.4078C84.3282 25.648 84.4254 25.8401 84.6197 25.9842C84.8141 26.1284 85.0895 26.2004 85.4458 26.2004H88.4098C89.3331 26.2004 90.1511 26.3125 90.8637 26.5367C91.5925 26.7769 92.1595 27.1692 92.5643 27.7136C92.9855 28.2741 93.196 29.0347 93.196 29.9954V31.0523H90.888ZM87.1708 22.3814C87.7538 22.3814 88.2803 22.2613 88.75 22.0211C89.2359 21.7649 89.6246 21.4047 89.9161 20.9403C90.2077 20.4599 90.3535 19.8834 90.3535 19.2109C90.3535 18.5224 90.2077 17.9379 89.9161 17.4575C89.6409 16.9611 89.2602 16.5928 88.7743 16.3526C88.2883 16.0965 87.7538 15.9683 87.1708 15.9683C86.5877 15.9683 86.0451 16.0965 85.543 16.3526C85.0571 16.5928 84.6683 16.9531 84.3768 17.4335C84.0852 17.9139 83.9395 18.5063 83.9395 19.2109C83.9395 19.8834 84.0852 20.4599 84.3768 20.9403C84.6683 21.4047 85.0571 21.7649 85.543 22.0211C86.0289 22.2613 86.5715 22.3814 87.1708 22.3814ZM102.141 26.4646C100.959 26.4646 99.8734 26.2164 98.8854 25.72C97.8973 25.2237 97.1118 24.511 96.5288 23.5823C95.9457 22.6536 95.6541 21.5407 95.6541 20.2437C95.6541 18.9307 95.9457 17.8097 96.5288 16.881C97.1118 15.9363 97.8973 15.2157 98.8854 14.7193C99.8734 14.223 100.959 13.9747 102.141 13.9747C103.323 13.9747 104.4 14.223 105.372 14.7193C106.344 15.2157 107.122 15.9363 107.705 16.881C108.288 17.8097 108.579 18.9307 108.579 20.2437C108.579 21.5407 108.288 22.6536 107.705 23.5823C107.122 24.511 106.344 25.2237 105.372 25.72C104.4 26.2164 103.323 26.4646 102.141 26.4646ZM102.141 24.471C102.87 24.471 103.542 24.311 104.158 23.9907C104.789 23.6544 105.291 23.174 105.664 22.5495C106.053 21.9091 106.247 21.1405 106.247 20.2437C106.247 19.331 106.053 18.5543 105.664 17.9139C105.291 17.2734 104.789 16.785 104.158 16.4487C103.542 16.1124 102.87 15.9443 102.141 15.9443C101.412 15.9443 100.732 16.1124 100.1 16.4487C99.4685 16.769 98.9583 17.2494 98.5696 17.8898C98.1808 18.5303 97.9865 19.315 97.9865 20.2437C97.9865 21.1405 98.1727 21.9091 98.5453 22.5495C98.934 23.174 99.4442 23.6544 100.076 23.9907C100.708 24.311 101.396 24.471 102.141 24.471ZM111.02 14.2149H113.352V26.2004H111.02V14.2149ZM117.968 13.9747C118.648 13.9747 119.264 14.0708 119.815 14.263C120.365 14.4551 120.835 14.7434 121.224 15.1277C121.612 15.496 121.912 15.9603 122.123 16.5208C122.349 17.0651 122.463 17.6896 122.463 18.3942V26.2004H120.155V18.8986C120.155 17.9539 119.92 17.2494 119.45 16.785C118.997 16.3046 118.3 16.0644 117.361 16.0644C116.632 16.0644 115.968 16.2325 115.369 16.5688C114.769 16.9051 114.275 17.3534 113.887 17.9139C113.514 18.4583 113.287 19.0748 113.206 19.7633L113.182 18.4423C113.263 17.8018 113.433 17.2093 113.692 16.6649C113.967 16.1205 114.308 15.648 114.713 15.2478C115.134 14.8314 115.62 14.5191 116.17 14.311C116.721 14.0868 117.32 13.9747 117.968 13.9747Z" fill="#0E390E"/>
<path d="M127.5 25.0061C127.5 24.3429 126.956 23.8052 126.285 23.8052C125.614 23.8052 125.07 24.3429 125.07 25.0061C125.07 25.6694 125.614 26.2071 126.285 26.2071C126.956 26.2071 127.5 25.6694 127.5 25.0061Z" fill="#041004"/>
<defs>
<filter id="filter0_f_1_3221" x="0.030982" y="0.407142" width="37.7197" height="28.3473" filterUnits="userSpaceOnUse" color-interpolation-filters="sRGB">
<feFlood flood-opacity="0" result="BackgroundImageFix"/>
<feBlend mode="normal" in="SourceGraphic" in2="BackgroundImageFix" result="shape"/>
<feGaussianBlur stdDeviation="6.55046" result="effect1_foregroundBlur_1_3221"/>
</filter>
</defs>
</svg>
