<svg width="33" height="34" viewBox="0 0 33 34" fill="none" xmlns="http://www.w3.org/2000/svg">
<rect x="0.470215" y="1.31107" width="31.4683" height="31.4683" rx="4.4166" fill="#FFFBF0" stroke="#FFBD00" stroke-width="0.828113"/>
<path d="M21.5191 9.45422C21.3178 9.45422 21.1247 9.5342 20.9824 9.67656C20.84 9.81892 20.76 10.012 20.76 10.2133V10.9724H16.9645C16.7632 10.9724 16.5701 11.0524 16.4277 11.1948C16.2854 11.3371 16.2054 11.5302 16.2054 11.7315V22.359C16.2054 22.5603 16.2854 22.7534 16.4277 22.8958C16.5701 23.0381 16.7632 23.1181 16.9645 23.1181H20.76V23.8772C20.76 24.0785 20.84 24.2716 20.9824 24.414C21.1247 24.5563 21.3178 24.6363 21.5191 24.6363C21.7204 24.6363 21.9135 24.5563 22.0559 24.414C22.1982 24.2716 22.2782 24.0785 22.2782 23.8772V10.2133C22.2782 10.012 22.1982 9.81892 22.0559 9.67656C21.9135 9.5342 21.7204 9.45422 21.5191 9.45422ZM20.76 21.5999H17.7236V12.4906H20.76V21.5999ZM13.9281 9.45422C13.7268 9.45422 13.5337 9.5342 13.3913 9.67656C13.249 9.81892 13.169 10.012 13.169 10.2133V11.7315H10.8917C10.6903 11.7315 10.4973 11.8115 10.3549 11.9539C10.2125 12.0962 10.1326 12.2893 10.1326 12.4906V21.5999C10.1326 21.8012 10.2125 21.9943 10.3549 22.1366C10.4973 22.279 10.6903 22.359 10.8917 22.359H13.169V23.8772C13.169 24.0785 13.249 24.2716 13.3913 24.414C13.5337 24.5563 13.7268 24.6363 13.9281 24.6363C14.1294 24.6363 14.3225 24.5563 14.4649 24.414C14.6072 24.2716 14.6872 24.0785 14.6872 23.8772V10.2133C14.6872 10.012 14.6072 9.81892 14.4649 9.67656C14.3225 9.5342 14.1294 9.45422 13.9281 9.45422ZM13.169 20.8408H11.6508V13.2497H13.169V20.8408Z" fill="#FFC727"/>
</svg>
